{"title":"Daybreakers (2009) R5 DVDRip XviD-MAX","uid":5343979,"size":944657693,"categoryP":"video","categoryS":"movies","magnet":"?xt=urn:btih:2c579c2578cf1519cd36772544d9257a5dfc1bba&amp;dn=Daybreakers+%282009%29+R5+DVDRip+XviD-MAX&amp;tr=udp%3A%2F%2Ftracker.openbittorrent.com%3A80&amp;tr=udp%3A%2F%2Fopen.demonii.com%3A1337&amp;tr=udp%3A%2F%2Ftracker.coppersurfer.tk%3A6969&amp;tr=udp%3A%2F%2Fexodus.desync.com%3A6969","seeders":3,"leechers":0,"uploader":"extremezone","files":-1,"time":1265572641,"description":"Daybreakers (2009) R5 DVDRip XviD-MAX \n\nFormat                           : AVI\nFormat/Info                      : Audio Video Interleave\nFormat profile                   : OpenDML\nFile size                        : 900 MiB\nDuration                         : 1h 33mn\nOverall bit rate                 : 1 343 Kbps\nWriting application              : VirtualDubMod 1.5.10.2 (build 2542/release)\nWriting library                  : VirtualDubMod build 2542/release\nOriginal source form             : MAX TORRENTZ\nCopyright                        : SIGISMUNT\n\nVideo\nFormat                           : xvid\nCodec ID                         : xvid\nDuration                         : 1h 33mn\nBit rate                         : 1 147 Kbps\nWidth                            : 720 pixels\nHeight                           : 320 pixels\nDisplay aspect ratio             : 2.25:1\nFrame rate                       : 25.000 fps\nResolution                       : 24 bits\nBits/(Pixel*Frame)               : 0.199\nStream size                      : 769 MiB (85%)\n\nAudio\nID                               : 1\nFormat                           : MPEG Audio\nFormat version                   : Version 1\nFormat profile                   : Layer 3\nCodec ID                         : 55\nCodec ID/Hint                    : MP3\nDuration                         : 1h 33mn\nBit rate mode                    : Constant\nBit rate                         : 192 Kbps\nChannel(s)                       : 2 channels\nSampling rate                    : 48.0 KHz\nResolution                       : 16 bits\nStream size                      : 129 MiB (14%)\nAlignment                        : Aligned on interleaves\nInterleave, duration             : 640 ms (16.01 video frames)\nInterleave, preload duration     : 216 ms\nWriting library                  : LAME3.96.1 &lt;a href=&quot;\nhttp://www.imdb.com/title/tt0433362/&quot; rel=&quot;nofollow&quot; target=&quot;_NEW&quot;&gt;\nhttp://www.imdb.com/title/tt0433362/&lt;/a&gt;\n\nScreens: &lt;a href=&quot;\nhttp://www.postimg.com/image/12000/11189.jpg&quot; rel=&quot;nofollow&quot; target=&quot;_NEW&quot;&gt;\nhttp://www.postimg.com/image/12000/11189.jpg&lt;/a&gt; &lt;a href=&quot;\nhttp://www.postimg.com/image/12000/11190.jpg&quot; rel=&quot;nofollow&quot; target=&quot;_NEW&quot;&gt;\nhttp://www.postimg.com/image/12000/11190.jpg&lt;/a&gt;  &lt;a href=&quot;\nhttp://www.postimg.com/image/12000/11191.jpg&quot; rel=&quot;nofollow&quot; target=&quot;_NEW&quot;&gt;\nhttp://www.postimg.com/image/12000/11191.jpg&lt;/a&gt;  &lt;a href=&quot;\nhttp://www.postimg.com/image/12000/11192.jpg&quot; rel=&quot;nofollow&quot; target=&quot;_NEW&quot;&gt;\nhttp://www.postimg.com/image/12000/11192.jpg&lt;/a&gt; \n\nScreenCaps: &lt;a href=&quot;\nhttp://www.postimg.com/image/12000/11193.jpg&quot; rel=&quot;nofollow&quot; target=&quot;_NEW&quot;&gt;\nhttp://www.postimg.com/image/12000/11193.jpg&lt;/a&gt;\n\nDaybreakers (2009) R5 DVDRip XviD-MAX Torrent Free Download &lt;a href=&quot;\nhttp://thepiratebay.se/user/extremezone/0/7&quot; rel=&quot;nofollow&quot; target=&quot;_NEW&quot;&gt;\nhttp://thepiratebay.se/user/extremezone/0/7&lt;/a&gt;","torrent":{"xt":"urn:btih:2c579c2578cf1519cd36772544d9257a5dfc1bba","amp;dn":"Daybreakers+%282009%29+R5+DVDRip+XviD-MAX","amp;tr":["udp%3A%2F%2Ftracker.openbittorrent.com%3A80","udp%3A%2F%2Fopen.demonii.com%3A1337","udp%3A%2F%2Ftracker.coppersurfer.tk%3A6969","udp%3A%2F%2Fexodus.desync.com%3A6969"],"infoHash":"2c579c2578cf1519cd36772544d9257a5dfc1bba","infoHashBuffer":{"type":"Buffer","data":[44,87,156,37,120,207,21,25,205,54,119,37,68,217,37,122,93,252,27,186]},"announce":[],"urlList":[]}}